<svg xmlns="http://www.w3.org/2000/svg" xmlns:xlink="http://www.w3.org/1999/xlink" version="1.1" viewBox="6.21 6.25 87.54 87.5">
    <title>facebook</title>
    <g id="surface1">
        <path style=" stroke:none;fill-rule:nonzero;fill:rgb(9.411765%,46.666667%,94.901961%);fill-opacity:1;" d="M 93.75 50 C 93.75 25.835938 74.164062 6.25 50 6.25 C 27.152344 6.230469 8.136719 23.792969 6.34375 46.570312 C 4.554688 69.347656 20.59375 89.667969 43.164062 93.21875 L 43.164062 62.644531 L 32.0625 62.644531 L 32.0625 50 L 43.167969 50 L 43.167969 40.363281 C 43.167969 29.398438 49.699219 23.335938 59.695312 23.335938 C 64.480469 23.335938 69.488281 24.195312 69.488281 24.195312 L 69.488281 34.960938 L 63.96875 34.960938 C 58.53125 34.960938 56.84375 38.335938 56.84375 41.792969 L 56.84375 50 L 68.976562 50 L 67.039062 62.644531 L 56.835938 62.644531 L 56.835938 93.21875 C 78.097656 89.851562 93.75 71.523438 93.75 50 Z M 93.75 50 "/>
        <path style=" stroke:none;fill-rule:nonzero;fill:rgb(100%,100%,100%);fill-opacity:1;" d="M 67.03125 62.644531 L 68.96875 50 L 56.835938 50 L 56.835938 41.792969 C 56.835938 38.335938 58.523438 34.960938 63.960938 34.960938 L 69.480469 34.960938 L 69.480469 24.1875 C 69.480469 24.1875 64.476562 23.332031 59.6875 23.332031 C 49.6875 23.332031 43.164062 29.394531 43.164062 40.355469 L 43.164062 50 L 32.0625 50 L 32.0625 62.644531 L 43.167969 62.644531 L 43.167969 93.21875 C 47.699219 93.933594 52.3125 93.933594 56.84375 93.21875 L 56.84375 62.644531 Z M 67.03125 62.644531 "/>
    </g>
</svg>