<svg xmlns="http://www.w3.org/2000/svg" xmlns:xlink="http://www.w3.org/1999/xlink" version="1.1" viewBox="0.04 0 98.93 97">
    <title>github</title>
    <g id="surface1">
        <path style=" stroke:none;fill-rule:nonzero;fill:rgb(100%,100%,100%);fill-opacity:1;" d="M 49.5 0 C 22.171875 0 0.0351562 22.25 0.0351562 49.726562 C 0.0351562 71.734375 14.195312 90.316406 33.855469 96.902344 C 36.328125 97.339844 37.253906 95.847656 37.253906 94.542969 C 37.253906 93.363281 37.195312 89.449219 37.195312 85.28125 C 24.769531 87.578125 21.554688 82.234375 20.566406 79.441406 C 20.007812 78.011719 17.597656 73.59375 15.492188 72.414062 C 13.761719 71.480469 11.289062 69.179688 15.429688 69.121094 C 19.328125 69.058594 22.113281 72.726562 23.039062 74.21875 C 27.492188 81.742188 34.601562 79.621094 37.445312 78.316406 C 37.875 75.085938 39.175781 72.910156 40.597656 71.664062 C 29.59375 70.425781 18.09375 66.136719 18.09375 47.113281 C 18.09375 41.707031 20.011719 37.230469 23.164062 33.75 C 22.667969 32.507812 20.9375 27.410156 23.65625 20.570312 C 23.65625 20.570312 27.800781 19.265625 37.261719 25.667969 C 41.21875 24.546875 45.421875 23.992188 49.628906 23.992188 C 53.832031 23.992188 58.035156 24.554688 61.992188 25.667969 C 71.457031 19.203125 75.59375 20.570312 75.59375 20.570312 C 78.316406 27.40625 76.582031 32.507812 76.089844 33.75 C 79.242188 37.230469 81.160156 41.640625 81.160156 47.113281 C 81.160156 66.195312 69.597656 70.421875 58.589844 71.664062 C 60.382812 73.222656 61.929688 76.207031 61.929688 80.867188 C 61.929688 87.515625 61.871094 92.863281 61.871094 94.539062 C 61.871094 95.84375 62.796875 97.402344 65.269531 96.90625 C 84.808594 90.316406 98.964844 71.667969 98.964844 49.726562 C 98.964844 22.25 76.828125 0 49.5 0 Z M 49.5 0 "/>
    </g>
</svg>