<svg xmlns="http://www.w3.org/2000/svg" xmlns:xlink="http://www.w3.org/1999/xlink" version="1.1" viewBox="8.33 8.33 83.34 83.34">
    <title>instagram</title>
    <g id="surface1">
        <path style=" stroke:none;fill-rule:nonzero;fill:rgb(75.686276%,20.784314%,51.764709%);fill-opacity:1;" d="M 91.667969 50 C 91.667969 26.988281 73.011719 8.332031 50 8.332031 C 26.988281 8.332031 8.332031 26.988281 8.332031 50 C 8.332031 73.011719 26.988281 91.667969 50 91.667969 C 73.011719 91.667969 91.667969 73.011719 91.667969 50 Z M 91.667969 50 "/>
        <path style=" stroke:none;fill-rule:nonzero;fill:rgb(100%,100%,100%);fill-opacity:1;" d="M 50 29.503906 C 56.675781 29.503906 57.464844 29.53125 60.101562 29.648438 C 62.539062 29.761719 63.863281 30.167969 64.746094 30.511719 C 65.910156 30.964844 66.742188 31.507812 67.617188 32.382812 C 68.492188 33.257812 69.035156 34.089844 69.488281 35.253906 C 69.832031 36.136719 70.238281 37.460938 70.351562 39.898438 C 70.46875 42.535156 70.496094 43.324219 70.496094 50 C 70.496094 56.675781 70.46875 57.464844 70.351562 60.101562 C 70.238281 62.539062 69.832031 63.863281 69.488281 64.746094 C 69.035156 65.910156 68.492188 66.742188 67.617188 67.617188 C 66.742188 68.492188 65.910156 69.035156 64.746094 69.488281 C 63.863281 69.832031 62.539062 70.238281 60.101562 70.347656 C 57.464844 70.46875 56.675781 70.496094 50 70.496094 C 43.324219 70.496094 42.535156 70.46875 39.898438 70.347656 C 37.460938 70.238281 36.136719 69.832031 35.253906 69.488281 C 34.089844 69.035156 33.257812 68.492188 32.382812 67.617188 C 31.507812 66.742188 30.964844 65.910156 30.511719 64.746094 C 30.167969 63.863281 29.761719 62.539062 29.648438 60.101562 C 29.53125 57.464844 29.503906 56.675781 29.503906 50 C 29.503906 43.324219 29.53125 42.535156 29.648438 39.898438 C 29.761719 37.460938 30.167969 36.136719 30.511719 35.253906 C 30.964844 34.089844 31.507812 33.257812 32.382812 32.382812 C 33.257812 31.507812 34.089844 30.964844 35.253906 30.511719 C 36.136719 30.167969 37.460938 29.761719 39.898438 29.648438 C 42.535156 29.53125 43.324219 29.503906 50 29.503906 Z M 50 25 C 43.210938 25 42.359375 25.027344 39.691406 25.152344 C 37.03125 25.273438 35.214844 25.695312 33.625 26.3125 C 31.980469 26.953125 30.585938 27.804688 29.195312 29.195312 C 27.804688 30.585938 26.953125 31.980469 26.3125 33.625 C 25.695312 35.214844 25.273438 37.03125 25.152344 39.691406 C 25.027344 42.359375 25 43.210938 25 50 C 25 56.789062 25.027344 57.640625 25.152344 60.308594 C 25.273438 62.96875 25.695312 64.785156 26.3125 66.375 C 26.953125 68.019531 27.804688 69.414062 29.195312 70.804688 C 30.585938 72.195312 31.980469 73.046875 33.625 73.6875 C 35.214844 74.304688 37.03125 74.726562 39.691406 74.847656 C 42.359375 74.972656 43.210938 75 50 75 C 56.789062 75 57.640625 74.972656 60.308594 74.847656 C 62.96875 74.726562 64.785156 74.304688 66.375 73.6875 C 68.019531 73.046875 69.414062 72.195312 70.804688 70.804688 C 72.195312 69.414062 73.046875 68.019531 73.6875 66.375 C 74.304688 64.785156 74.726562 62.96875 74.847656 60.308594 C 74.972656 57.640625 75 56.789062 75 50 C 75 43.210938 74.972656 42.359375 74.847656 39.691406 C 74.726562 37.03125 74.304688 35.214844 73.6875 33.625 C 73.046875 31.980469 72.195312 30.585938 70.804688 29.195312 C 69.414062 27.804688 68.019531 26.953125 66.375 26.3125 C 64.785156 25.695312 62.96875 25.273438 60.308594 25.152344 C 57.640625 25.027344 56.789062 25 50 25 Z M 50 25 "/>
        <path style=" stroke:none;fill-rule:nonzero;fill:rgb(100%,100%,100%);fill-opacity:1;" d="M 50.011719 37.171875 C 42.921875 37.171875 37.175781 42.921875 37.175781 50.011719 C 37.175781 57.101562 42.921875 62.847656 50.011719 62.847656 C 57.101562 62.847656 62.851562 57.101562 62.851562 50.011719 C 62.851562 42.921875 57.101562 37.171875 50.011719 37.171875 Z M 50.011719 58.34375 C 45.410156 58.34375 41.679688 54.613281 41.679688 50.011719 C 41.679688 45.410156 45.410156 41.679688 50.011719 41.679688 C 54.613281 41.679688 58.34375 45.410156 58.34375 50.011719 C 58.34375 54.613281 54.613281 58.34375 50.011719 58.34375 Z M 50.011719 58.34375 "/>
        <path style=" stroke:none;fill-rule:nonzero;fill:rgb(100%,100%,100%);fill-opacity:1;" d="M 66.355469 36.660156 C 66.355469 38.316406 65.011719 39.660156 63.355469 39.660156 C 61.699219 39.660156 60.355469 38.316406 60.355469 36.660156 C 60.355469 35.003906 61.699219 33.660156 63.355469 33.660156 C 65.011719 33.660156 66.355469 35.003906 66.355469 36.660156 Z M 66.355469 36.660156 "/>
    </g>
</svg>